<svg xmlns="http://www.w3.org/2000/svg" xmlns:xlink="http://www.w3.org/1999/xlink" viewBox="0 0 242.67 188.2"><style><![CDATA[.A{isolation:isolate}.r,.F{mix-blend-mode:hard-light}.AB{fill:#72acfb}.AC{fill:#f4f4f4}.AD{fill:#dcd0c8}.AE{fill:#dba585}]]></style><defs><linearGradient id="A" x1="243.611" y1="97.323" x2="10.804" y2="50.267" xlink:href="#T"><stop offset=".24" stop-color="#00bdc4"/><stop offset=".67" stop-color="#00b6c9"/><stop offset=".79" stop-color="#00abd4"/><stop offset=".89" stop-color="#009ae2"/><stop offset=".98" stop-color="#0084f5"/><stop offset="1" stop-color="#007dfb"/></linearGradient><linearGradient id="B" x1="145.4" y1="130.67" x2="75.72" y2="130.67" xlink:href="#T"><stop offset="0" stop-color="#eebe63"/><stop offset="1" stop-color="#dc3b57"/></linearGradient><linearGradient id="C" y1="134.46" y2="134.46" xlink:href="#B"/><linearGradient id="D" y1="138.25" y2="138.25" xlink:href="#B"/><linearGradient id="E" x1="69.45" y1="102.56" x2="92.47" y2="102.56" xlink:href="#A"/><linearGradient id="F" x1="69.46" y1="96.97" x2="78.39" y2="96.97" xlink:href="#A"/><linearGradient id="G" x1="77.53" y1="92.9" x2="85.55" y2="92.9" xlink:href="#A"/><linearGradient id="H" x1="84.41" y1="94.04" x2="88.42" y2="94.04" xlink:href="#A"/><linearGradient id="I" x1="124.43" y1="136.45" x2="128.42" y2="136.45" xlink:href="#A"/><linearGradient id="J" x1="130.19" y1="133.3" x2="134.18" y2="133.3" xlink:href="#A"/><linearGradient id="K" x1="124.04" y1="61.69" x2="90.89" y2="55.03" xlink:href="#A"/><linearGradient id="L" x1="147.54" y1="131.32" x2="178.44" y2="131.32" xlink:href="#T"><stop offset="0" stop-color="#81d3e4"/><stop offset="1" stop-color="#6076fa"/></linearGradient><linearGradient id="M" x1="166.76" y1="106.1" x2="177.09" y2="106.1" xlink:href="#T"><stop offset="0" stop-color="#81d3e4"/><stop offset="1" stop-color="#6076fa"/></linearGradient><linearGradient id="N" y1="111.55" x2="176.24" y2="111.55" xlink:href="#M"/><linearGradient id="O" y1="108.83" x2="174.96" y2="108.83" xlink:href="#M"/><linearGradient id="P" x1="147.54" y1="105.7" x2="163.81" y2="105.7" xlink:href="#T"><stop offset="0" stop-color="#d3d8de"/><stop offset="1" stop-color="#fff"/></linearGradient><linearGradient id="Q" x1="185.54" y1="89" x2="194.13" y2="89" xlink:href="#T"><stop offset="0" stop-color="#72acfb"/><stop offset="1" stop-color="#5286d4"/></linearGradient><linearGradient id="R" y1="86.18" x2="192.27" y2="86.18" xlink:href="#Q"/><path id="S" d="M147.46 120.47h.16v20.26h-.16z"/><linearGradient id="T" gradientUnits="userSpaceOnUse"/></defs><g class="A"><g><path d="M83.55 57.68c46-16.55 80.67-88.82 134.93-30.6s9.24 146.44-56 156.87-140.9-18-154.48-64.4c-23.17-79.3 44.68-50.74 75.55-61.85z" fill="#f0f0f0"/><path d="M80.27 52.9c46-16.56 80.67-88.83 134.93-30.6s9.24 146.43-56 156.87-140.85-18-154.42-64.42C-18.45 35.44 49.4 64 80.27 52.9z" fill="url(#A)"/><path d="M205.4 154.68h4.2v3.68h-4.2z" fill="#d2dceb"/><rect class="F AC" x="84.53" y="33.17" width="130.18" height="48.07" rx="24.03"/><path d="M91.34 137.43h48.8v1.62h-48.8z" fill="#fff"/><path d="M91.34 129.86h36.25v1.62H91.34z" fill="url(#B)"/><path d="M91.34 133.64h39.17v1.62H91.34z" fill="url(#C)"/><path d="M91.34 137.43h25.4v1.62h-25.4z" fill="url(#D)"/><rect class="F AC" x="61.48" y="83.85" width="81.81" height="74.5" rx="16.71"/><path d="M91.8 106.4a11.4 11.4 0 0 0-3.38-12.57 11.14 11.14 0 0 0-2.87-1.77l-.7-.3a11.54 11.54 0 0 0-14.71 6.93 11.13 11.13 0 0 0-.67 3.51 11.51 11.51 0 0 0 22.34 4.19zm-13.74 4.23a8.58 8.58 0 0 1-5.72-8.34 8.44 8.44 0 0 1 .5-2.63 8.65 8.65 0 0 1 11-5.19l.54.2A9 9 0 0 1 86.55 96a8.56 8.56 0 0 1 2.54 9.43 8.65 8.65 0 0 1-11.03 5.21z" fill="url(#E)"/><path d="M78.4 94.37l-.86-2.73a11.43 11.43 0 0 0-7.4 7.07 11.13 11.13 0 0 0-.67 3.51l2.88.08a8.44 8.44 0 0 1 .5-2.63 8.62 8.62 0 0 1 5.55-5.3z" fill="url(#F)"/><path d="M84.4 94.7l1.14-2.62-.7-.3a11.52 11.52 0 0 0-7.31-.14l.86 2.73a8.65 8.65 0 0 1 5.48.11z" fill="url(#G)"/><path d="M88.42 93.84a11.14 11.14 0 0 0-2.87-1.77L84.4 94.7A9 9 0 0 1 86.55 96z" fill="url(#H)"/><path d="M124.43 129.65h4v13.6h-4z" fill="url(#I)"/><path d="M118.5 133.46h4v9.8h-4z" class="AB"/><path d="M130.2 123.34h4v19.9h-4z" fill="url(#J)"/><path d="M133.54 113.4l-.07-.43-10.54 1.7-3.42 7.24-11.36.77-3.68 5.4-8.7-.2-.01.43 8.93.22 3.7-5.42 11.4-.77 3.43-7.26 10.3-1.68z" class="AB"/><path d="M120.66 95.27H132a1.29 1.29 0 0 0 1.31-1.27h0a1.29 1.29 0 0 0-1.31-1.31h-11.34a1.29 1.29 0 0 0-1.3 1.29h0a1.3 1.3 0 0 0 1.3 1.29z" fill="#4e85de"/><g class="AB"><path d="M120.66 99.77H132a1.29 1.29 0 0 0 1.29-1.29h0a1.29 1.29 0 0 0-1.29-1.29h-11.34a1.3 1.3 0 0 0-1.3 1.29h0a1.29 1.29 0 0 0 1.3 1.29zm0 4.5H132a1.29 1.29 0 0 0 1.29-1.29h0a1.29 1.29 0 0 0-1.29-1.29h-11.34a1.29 1.29 0 0 0-1.3 1.29h0a1.3 1.3 0 0 0 1.3 1.29zM100.1 97.5h-6.5v-.25h6.4l3.42-3.4h4.2v.25h-4.1l-3.42 3.4zm6.16 11.3H97.9l-2.7-2.7.18-.17 2.63 2.62h8.26v.25z"/></g><g fill="#4e85de"><path d="M104.04 95.5h8.66v1.06h-8.66zm-2.64 10.78h6.98v1.06h-6.98z"/></g><g fill="#bfd4fc"><path d="M95.5 26.63v1.4H81.84v13.6h-1.4v-15H95.5zm112.66-4.06h11.13v.78h-11.13zm0 1.46h11.13v3.26h-11.13zm-7.63 1.24h6.57v.5h-6.57z"/><path d="M200.53 25.97h6.57v1.32h-6.57zm18.52-3.4h.5v9.14h-.5z"/></g><path d="M82.68 147.16h13.74v.8H82.68z" class="AD"/><path d="M85.73 186.97h-1.2V150.1h1.2z" fill="#6d6865"/><path d="M94.27 146.93h9.55v1.16h-9.55z" fill="#c6bbb5"/><path d="M97.23 137.05h3.62v10.92h-3.62z" fill="#948c87"/><path d="M77.75 148h52.9v2.1h-52.9z" fill="#a98e75"/><path d="M67.6 135.3s-.58 8.07 1 9c1 .6 5 2.65 4.83 3s-2.23 3.4-2.23 3.4-7.6-5-7.86-6.56.38-11.8 1.42-12.3c.8-.35 1.2-.06 2.2.67a2.3 2.3 0 0 1 .65 2.77z" fill="#ebb35c"/><path d="M77 181.93l-.27 1.88c-.03.24-2.63-.14-2.63-.14l-.2-1.95a15.56 15.56 0 0 1 3.11.21z" fill="#454971"/><path d="M76.72 183.6a6.91 6.91 0 0 0 1.62 1.4c.8.43 2 .6 2.52 1s1.24 1.7-2.07 1.67-4.9.2-5.26-.33.5-3.9.5-3.9a7.09 7.09 0 0 0 2.68.17z" fill="#2e3048"/><path d="M93.63 182l-.27 1.88c-.03.25-2.63-.15-2.63-.15l-.2-1.94a15.56 15.56 0 0 1 3.11.21z" fill="#454971"/><g fill="#2e3048"><path d="M93.4 183.62A7 7 0 0 0 95 185c.8.43 3.73.78 4.2 1.23s.9 1.6-3.75 1.5c-3.3-.1-4.9.2-5.26-.34s.5-3.9.5-3.9a6.4 6.4 0 0 0 2.69.14z"/><path d="M68.57 153.73l11.6 1.92c2.13.33 13.72 3.2 15.17 4.08 1.16.7-.6 17.4-1 23.76h-4.58l-.33-19.1c-5.47.14-9.38-1.27-13.37-.67s-7.3 1.46-9.84-1.92c0 0-.1-7.32 2.36-8.06z"/><path d="M77.9 183.5l-4.45-.27-.44-18.86a27 27 0 0 1-5.07-.32l-3.6-8.3c3.14.63 13.22 3.16 14.57 4 1.16.66-.6 17.38-1.02 23.75z"/></g><g class="AE"><path d="M72.92 118.46s3.47-.95 4.8 1.73.72 7.75-1 8.23-4.26-.08-5-1.74a12.74 12.74 0 0 1-1.13-5.57 3.38 3.38 0 0 1 2.34-2.65z"/><path d="M75.78 127.88a10.27 10.27 0 0 0 .19 2.47c.22.44-4.83.33-4.83.33a10.07 10.07 0 0 0 .34-4.53c-.48-2.06 4.3 1.73 4.3 1.73z"/></g><path d="M71.2 125.38s.27.55 1.58.46 3-1.66 3.6-1.8.6-.46.6-.46l.3.52.57.1s-.4-1.57.46-2.13-.38-5-4.65-3.94c0 0-3.25.6-3.3 2.4a10.08 10.08 0 0 0 .87 4.86z" fill="#3e4148"/><path d="M76.23 130.3s0-.83-.4-.9a24.86 24.86 0 0 0-4.44-.39l-.2 1.1s.9.54 5.02.2z" class="AD"/><path d="M77.27 123.2c-.1-.68-.87-1.46-1.3-.4s.3 2.6.8 2.52.66-1.2.52-2.12z" class="AE"/><path d="M91.3 140.1z" fill="#363957"/><path d="M71.9 119s-4.23-.2-.74 6.36z" fill="#3e4148"/><g fill="#8c8581"><path d="M62.5 185.75l.3.88 13.3-4.1-.64-1.78-12.96 5z"/><path d="M75.04 167.53h1.5v14.37h-1.5z"/></g><path d="M71.34 166.77h8.9v.85h-8.9z" fill="#5d5955"/><g fill="#8c8581"><path d="M89.2 185.75l-.3.88-13.3-4.1.58-1.9 13.02 5.1z"/><path d="M79.85 186.53v1.03l-4.24-5.03.58-1.9 3.66 5.9z"/></g><g fill="#b9afaa"><path d="M90.46 187a1.25 1.25 0 1 1-1.25-1.24 1.24 1.24 0 0 1 1.25 1.24zM80 187a1.25 1.25 0 1 1-1.25-1.24A1.24 1.24 0 0 1 80 187zm-16.27 0a1.24 1.24 0 1 1-1.24-1.24 1.23 1.23 0 0 1 1.24 1.24z"/></g><path d="M84.8 166.77H66.9a1.61 1.61 0 0 1-1.61-1.6h0a1.61 1.61 0 0 1 1.61-1.61H84.8a1.61 1.61 0 0 1 1.61 1.61h0a1.61 1.61 0 0 1-1.61 1.6z" class="AD"/><path d="M122.7 150.1h1.2v36.88h-1.2z" fill="#6d6865"/><rect x="83.43" y="120.41" width="31.22" height="21.91" rx="6.38" fill="#b2a8a3"/><path d="M84.65 121.6h28.78v17.3H84.65z" fill="#f4f6ff"/><path d="M112.15 140.5a1.2 1.2 0 0 1-1.89 1.262 1.2 1.2 0 0 1 .73-2.152 1.05 1.05 0 0 1 1.16.89z" fill="#8c8480"/><path d="M105.5 148v-.4s-.55-2.43-4.45-2.43-3.82 2.82-3.82 2.82z" fill="#948c87"/><path d="M97.2 145.56a3.74 3.74 0 0 0 1.16-.25c.3-.2 2.17-1.43 2.6-1.23s3.34 1.1 3.24 1.5-.37.38-.58.3a15.88 15.88 0 0 0-2.49-.44c0 0 2.07.75 2.07 1.3s-.43.68-.62.9-.44.72-1 .76-3.14-.86-3.67-.9a14.88 14.88 0 0 1-1.6-.05 15.65 15.65 0 0 1 .89-1.89z" class="AE"/><path d="M81.78 131.45l-5.55-1.15-5-.2a50 50 0 0 0-6.44 1.82c-.17.08-.17 4.1-.64 5.15l1.5 3.16 1.05 9.05c.1 1.28-.23 12.36-.23 12.36a19.64 19.64 0 0 0 3.88.6c3.44.37 12-.14 12.06-.54s-1.66-15-1.73-15.77c-.12-1.16.34-6.53.34-6.53.64.87 2.3 4.77 4 6.63 1 1.1 6 1.76 7 1.8 2 .06 5.8.47 5.9.27s.32-3.3.1-3.38-7.16-.47-9-1.4c-.65-.34-2.6-4.57-2.6-4.57s-3.15-6.6-4.64-7.28z" fill="#ebb35c"/><g class="AD"><rect x="60.37" y="141.27" width="14.55" height="20.05" rx="2.97"/><path d="M72.34 166a6.67 6.67 0 0 1-5.17-2.13c-2.9-3.2-2.4-8.8-2.36-9.05a.81.81 0 0 1 1.61.16c0 .07-.47 5.16 2 7.8a5 5 0 0 0 4 1.6.81.81 0 0 1 .776 1.236.81.81 0 0 1-.776.374z"/></g><g fill="#dedfe6"><rect x="86.69" y="122.97" width="8.43" height=".91" rx=".46"/><rect x="86.69" y="124.93" width="8.43" height=".91" rx=".46"/><rect x="86.69" y="127.18" width="8.43" height="10.33" rx="1.72"/><rect x="96.83" y="122.97" width="15.01" height="14.54" rx="3.07"/></g><path d="M123.38 52.7a16.94 16.94 0 0 0-32.06.65A16.69 16.69 0 0 0 91.54 64q.2.54.42 1a16.64 16.64 0 0 0 2.62 4.19 17 17 0 0 0 18.58 4.94 16.79 16.79 0 0 0 10.22-21.43zm-11.65 17.53a12.72 12.72 0 0 1-13.93-3.7 12.41 12.41 0 0 1-2-3.14l-.3-.78a12.48 12.48 0 0 1-.17-8 12.64 12.64 0 0 1 7.83-8.12 13 13 0 0 1 3.89-.73 12.6 12.6 0 0 1 4.65 24.47z" fill="url(#K)"/><path d="M95.36 54.6l-4-1.26A17 17 0 0 1 107 41.55l.12 4.2a13 13 0 0 0-3.89.73 12.64 12.64 0 0 0-7.87 8.12z" fill="#385988"/><path d="M95.84 63.4L92 65.07q-.22-.5-.42-1a16.69 16.69 0 0 1-.22-10.67l4 1.26a12.48 12.48 0 0 0 .17 8l.3.73z" fill="#4772b0"/><path d="M94.58 69.26A16.64 16.64 0 0 1 92 65.07l3.88-1.68a12.41 12.41 0 0 0 2 3.14z" fill="#5886c7"/><g fill="#dedede"><path d="M130.07 53.73h3v21.2h-3zm7.43 4.3h3v16.9h-3zm7.43-3.17h3v20.07h-3zm7.44 6.26h3v13.8h-3zm7.43-5.6h3v19.42h-3zm7.43-2.92h3v22.35h-3zm7.44-1.23h3v23.57h-3z"/></g><g fill="#df655a"><path d="M130.07 61.63h3v13.3h-3zm7.43 2.7h3v10.6h-3zm7.43-2h3v12.6h-3zm7.44 3.93h3v8.66h-3zm7.43-3.52h3v12.18h-3zm7.43-1.83h3v14.02h-3zm7.44-.77h3v14.78h-3z"/></g><g fill="#dedede"><path d="M182.87 53.73h3v21.2h-3zm7.43 4.3h3v16.9h-3zm7.44-3.17h3v20.07h-3zm7.43 6.26h3v13.8h-3z"/></g><g fill="#df655a"><path d="M182.87 61.63h3v13.3h-3zm7.43 2.7h3v10.6h-3zm7.44-2h3v12.6h-3zm7.43 3.93h3v8.66h-3z"/></g><rect x="128.41" y="40.22" width="79.76" height="3.03" rx="1.51" transform="matrix(-1 0 0 -1 336.57 83.48)" class="AB"/><rect x="128.41" y="45.51" width="79.76" height="3.03" rx="1.51" transform="matrix(-1 0 0 -1 336.57 94.05)" fill="#bfd4fc"/><g class="r"><rect x="144.93" y="83.9" width="36.32" height="61.3" rx="7.42" class="AC"/></g><g class="AB"><use xlink:href="#S"/><use xlink:href="#S" x="7.74"/><use xlink:href="#S" x="15.44"/><use xlink:href="#S" x="23.18"/><use xlink:href="#S" x="30.9"/></g><path d="M147.54 132.5a4.48 4.48 0 0 0 6.19-.48c3-3.12 6.55-4.17 9.66-1.54s4.3-1 7.4-3.94 3-4.63 7.64-4.63v18.8h-30.9z" fill="url(#L)"/><g class="AB"><path d="M155.27 118.78h1.92v.74h-1.92zm-7.8 0h2.6v.74h-2.6zm15.54 0h2.37v.74H163zm7.64 0H173v.74h-2.37zm5.43 0h2.37v.74h-2.37z"/></g><path d="M166.76 105.45h10.33v1.3h-10.33z" fill="url(#M)"/><path d="M166.76 110.9h9.48v1.3h-9.48z" fill="url(#N)"/><path d="M166.76 108.18h8.2v1.3h-8.2z" fill="url(#O)"/><g class="AB"><path d="M157.5 103.6a1.81 1.81 0 1 1-1.81-1.8 1.81 1.81 0 0 1 1.81 1.8zm1.5 5.86v3.4a8 8 0 0 1-6.55 0v-3.4a3.28 3.28 0 0 1 6.55 0z"/></g><path d="M155.68 113.8a8.12 8.12 0 0 1-8.14-8.09 8.14 8.14 0 1 1 11.5 7.37 8.25 8.25 0 0 1-3.36.72zm0-15.76a7.66 7.66 0 0 0-3.19 14.65 7.78 7.78 0 0 0 3.19.68 7.67 7.67 0 1 0 0-15.33z" fill="url(#P)"/><g class="AB"><path d="M171.82 102.28a4.89 4.89 0 1 1 4.92-4.89 4.92 4.92 0 0 1-4.92 4.89zm0-8.8a3.91 3.91 0 1 0 3.93 3.91 3.92 3.92 0 0 0-3.93-3.91zm-16.52-5.83h7.4v1.17h-7.4zm1.1 3.02h6.3v1.18h-6.3zm-3.84 3.03h10.15v1.17h-10.15z"/></g><g class="r"><rect x="183.55" y="83.77" width="24.61" height="17.45" rx="5.03" class="AC"/></g><rect x="185.54" y="88.38" width="8.59" height="1.24" rx=".62" fill="url(#Q)"/><rect x="185.54" y="85.56" width="6.73" height="1.24" rx=".62" fill="url(#R)"/><path d="M185.54 98.8l4.98-4.95 1.48 1.48 5.47-5.43 2.42 2.4 6.34-6.3v12.8h-20.7z" class="AB"/><path d="M206.18 98.8V89l-6.55 6.5-2.34-2.33-3.9 3.9-2.96-1.17-4.9 2.92h20.64z" fill="#558ad8"/></g></g></svg>