<svg xmlns="http://www.w3.org/2000/svg" xmlns:xlink="http://www.w3.org/1999/xlink" viewBox="0 0 223.8 187.9"><style><![CDATA[.o{stroke-miterlimit:10}.p{stroke-width:.25}.q{stroke:#00030e}.r{fill:none}.s{stroke-linejoin:round}.t{stroke-linecap:round}.u{fill:#00030e}.v{fill:#cfdeff}.w{fill:#42445d}.x{fill:#f4b7bc}.y{stroke:#f4b7bc}]]></style><path d="M142.2 78.9C107.7 58.1 91.4-6 38.2 32.3S7 149.2 58 168.2s116.7 8.3 135.1-27c31.6-60.4-27.8-48.3-50.9-62.3z" fill="#f0f0f0"/><defs><path id="A" d="M142.2 78.9C107.7 58.1 91.4-6 38.2 32.3S7 149.2 58 168.2s116.7 8.3 135.1-27c31.6-60.4-27.8-48.3-50.9-62.3z"/><path id="B" d="M145.8 74.9C111.3 54.1 95-9.9 41.8 28.3S10.6 145.2 61.7 164.2s116.7 8.3 135.1-27c31.6-60.4-27.9-48.3-51-62.3z"/><path id="C" d="M123.7 53.2H141v1.4h-17.3z"/><path id="D" d="M144.6 55.3h-.8c-.5 0-1-.4-1-1v-.8c0-.5.4-1 1-1h.8c.5 0 1 .4 1 1v.8c0 .6-.5 1-1 1z"/><path id="E" d="M112.3 119.7h-3.9c-.9 0-1.7-.8-1.7-1.7v-1.8c0-.9.8-1.7 1.7-1.7h3.9c.9 0 1.7.8 1.7 1.7v1.8c0 1-.7 1.7-1.7 1.7z"/><path id="F" d="M121 119.7h-4c-.9 0-1.7-.8-1.7-1.7v-1.8c0-.9.8-1.7 1.7-1.7h3.9c.9 0 1.7.8 1.7 1.7v1.8c.1 1-.7 1.7-1.6 1.7z"/><path id="G" d="M138.3 119.7h-3.9c-.9 0-1.7-.8-1.7-1.7v-1.8c0-.9.8-1.7 1.7-1.7h3.9c.9 0 1.7.8 1.7 1.7v1.8c0 1-.8 1.7-1.7 1.7z"/><path id="H" d="M147 119.7h-4c-.9 0-1.7-.8-1.7-1.7v-1.8c0-.9.8-1.7 1.7-1.7h3.9c.9 0 1.7.8 1.7 1.7v1.8c0 1-.7 1.7-1.6 1.7z"/><path id="I" d="M112.3 134.1h-3.9c-.9 0-1.7-.8-1.7-1.7v-1.8c0-.9.8-1.7 1.7-1.7h3.9c.9 0 1.7.8 1.7 1.7v1.8c0 .9-.7 1.7-1.7 1.7z"/><path id="J" d="M121 134.1h-4c-.9 0-1.7-.8-1.7-1.7v-1.8c0-.9.8-1.7 1.7-1.7h3.9c.9 0 1.7.8 1.7 1.7v1.8c.1.9-.7 1.7-1.6 1.7z"/><path id="K" d="M138.3 134.1h-3.9c-.9 0-1.7-.8-1.7-1.7v-1.8c0-.9.8-1.7 1.7-1.7h3.9c.9 0 1.7.8 1.7 1.7v1.8c0 .9-.8 1.7-1.7 1.7z"/><path id="L" d="M147 134.1h-4c-.9 0-1.7-.8-1.7-1.7v-1.8c0-.9.8-1.7 1.7-1.7h3.9c.9 0 1.7.8 1.7 1.7v1.8c0 .9-.7 1.7-1.6 1.7z"/><path id="M" d="M125.3 118.7h0l3.1-3.1c.4-.4 1.1-.4 1.6 0h0l-3.1 3.1c-.4.4-1.1.4-1.6 0z"/><path id="N" d="M101.3 35.4l.5 1.4a4.83 4.83 0 0 0 2.8 2.8l1.4.5-1.4.5a4.83 4.83 0 0 0-2.8 2.8l-.5 1.4-.5-1.4a4.83 4.83 0 0 0-2.8-2.8l-1.4-.5 1.4-.5a4.83 4.83 0 0 0 2.8-2.8l.5-1.4z"/><path id="O" d="M138.2 89.4l.1.4c.1.4.4.7.8.8l.4.1-.4.1c-.4.1-.7.4-.8.8l-.1.4-.1-.4c-.1-.4-.4-.7-.8-.8l-.4-.1.4-.1c.4-.1.7-.4.8-.8l.1-.4z"/></defs><clipPath id="P"><use xlink:href="#A"/></clipPath><g clip-path="url(#P)"><path d="M2.3 153s29.4-29.5 78.5-15.5 78 2 71.9-72.2c0 0 69 9.6 60.2 58.7-10.7 59.6-149.4 82.3-210.6 29z" fill="#f0f0f0"/></g><linearGradient id="Q" gradientUnits="userSpaceOnUse" x1="11.085" y1="94.946" x2="205.828" y2="94.946"><stop offset="0" stop-color="#00bfc2"/><stop offset=".246" stop-color="#00bbc5"/><stop offset=".49" stop-color="#00afcf"/><stop offset=".732" stop-color="#009bdf"/><stop offset=".972" stop-color="#0080f5"/><stop offset="1" stop-color="#007cf8"/></linearGradient><use xlink:href="#B" fill="url(#Q)"/><use xlink:href="#B" fill="url(#Q)"/><defs><path id="R" d="M145.8 74.9C111.3 54.1 95-9.9 41.8 28.3S10.6 145.2 61.7 164.2s116.7 8.3 135.1-27c31.6-60.4-27.9-48.3-51-62.3z"/></defs><clipPath id="S"><use xlink:href="#R"/></clipPath><g clip-path="url(#S)"><linearGradient id="T" gradientUnits="userSpaceOnUse" x1="5.9" y1="120.192" x2="217.356" y2="120.192"><stop offset="0" stop-color="#00bfc2"/><stop offset=".246" stop-color="#00bbc5"/><stop offset=".49" stop-color="#00afcf"/><stop offset=".732" stop-color="#009bdf"/><stop offset=".972" stop-color="#0080f5"/><stop offset="1" stop-color="#007cf8"/></linearGradient><path d="M5.9 149s29.4-29.5 78.5-15.5 78 2 71.9-72.2c0 0 69 9.6 60.2 58.7-10.7 59.6-149.3 82.3-210.6 29z" fill="url(#T)"/></g><g fill="#fff"><circle cx="4" cy="27.2" r=".9"/><circle cx="7.7" cy="27.2" r=".9"/><circle cx="11.5" cy="27.2" r=".9"/><path d="M107.8 15.4h6.9c.5 0 1 .4 1 1h0c0 .5-.4 1-1 1h-6.9c-.5 0-1-.4-1-1h0a1.08 1.08 0 0 1 1-1zm0-4.8h12.7c.5 0 1 .4 1 1h0c0 .5-.4 1-1 1h-12.7c-.5 0-1-.4-1-1h0a1.08 1.08 0 0 1 1-1zm0-4.7h21.8c.5 0 1 .4 1 1h0c0 .5-.4 1-1 1h0-21.8c-.5 0-1-.4-1-1h0a1.08 1.08 0 0 1 1-1z"/><circle transform="matrix(.9928 -.1201 .1201 .9928 -5.5489 16.8043)" cx="136.7" cy="54.5" r=".5"/><path d="M216.7 56.4h-10.4c-.5 0-1-.4-1-1v-9.8c0-.5.4-1 1-1h10.4c.5 0 1 .4 1 1v9.8c0 .6-.5 1-1 1zm-15.5-5h-9.4c-.5 0-.8-.4-.8-.8h0c0-.5.4-.8.8-.8h9.4c.5 0 .8.4.8.8h0c.1.4-.3.8-.8.8zm-15.6 0h-11.2c-.5 0-.8-.4-.8-.8h0c0-.5.4-.8.8-.8h11.2c.5 0 .8.4.8.8h0c0 .4-.4.8-.8.8zm-4.5 4.2h20.1c.5 0 .8-.4.8-.8h0c0-.5-.4-.8-.8-.8h-20.1c-.5 0-.8.4-.8.8h0c0 .5.3.8.8.8z"/></g><g stroke="#1d325f" class="o r"><path d="M54.3 60.2c-.5-.2-1-.3-1.4-.4"/><path d="M49.9 59.2c-15.8-2-27.9 13.6-22 26.7 6.7 14.8 24.1 1.8 16.9-2.3-3.6-2-10.5 2-12.8 8.3-3 7.9-4.2 14-2.5 23.1 3.5 18.4 21 29.3 36.9 18.3C74.1 128 81.8 119.4 93 118" stroke-dasharray="3.0028,3.0028"/><path d="M94.5 117.9H96"/></g><path d="M64 59.1c0-1-.1-2-.3-3-.1-.7.1-1.3.7-1.7l1.3-.8c.7-.4 1-1.4.6-2.1L64.9 49c-.4-.7-1.4-1-2.1-.6l-1.4.8a1.68 1.68 0 0 1-1.8-.2c-1.5-1.3-3.2-2.4-5.1-3-.6-.2-1.1-.8-1.1-1.5V43a1.47 1.47 0 0 0-1.5-1.5H49a1.54 1.54 0 0 0-1.5 1.5v1.6c0 .7-.4 1.3-1.1 1.5-1.9.6-3.7 1.6-5.1 3-.5.5-1.2.6-1.8.2l-1.4-.8c-.7-.4-1.7-.2-2.1.6l-1.4 2.5c-.4.7-.2 1.7.6 2.1l1.3.8c.6.3.9 1 .7 1.7-.2 1-.3 2-.3 3s.1 2 .3 3c.1.7-.1 1.3-.7 1.7l-1.3.8c-.7.4-1 1.4-.6 2.1l1.4 2.5c.4.7 1.4 1 2.1.6l1.4-.8a1.68 1.68 0 0 1 1.8.2c1.5 1.3 3.2 2.4 5.1 3 .6.2 1.1.8 1.1 1.5v1.6a1.47 1.47 0 0 0 1.5 1.5h2.8a1.54 1.54 0 0 0 1.5-1.5v-1.6c0-.7.4-1.3 1.1-1.5 1.9-.6 3.7-1.6 5.1-3 .5-.5 1.2-.6 1.8-.2l1.4.8c.7.4 1.7.2 2.1-.6l1.4-2.5c.4-.7.2-1.7-.6-2.1l-1.3-.8c-.6-.3-.9-1-.7-1.7.3-1.1.4-2.1.4-3.1zM50.4 66c-3.8 0-6.9-3.1-6.9-7 0-3.8 3.1-7 6.9-7s6.9 3.1 6.9 7c.1 3.9-3 7-6.9 7z" fill="#fff"/><path d="M84.1 65.4c0-.8-.1-1.6-.3-2.3-.1-.5.1-1 .6-1.3l1-.6c.6-.3.8-1.1.4-1.6l-1.1-1.9c-.3-.6-1.1-.8-1.6-.4l-1 .6c-.5.3-1 .2-1.4-.2-1.1-1-2.5-1.8-4-2.3-.5-.2-.8-.6-.8-1.1v-1.2c0-.7-.5-1.2-1.2-1.2h-2.2c-.7 0-1.2.5-1.2 1.2v1.2c0 .5-.3 1-.8 1.1-1.5.5-2.9 1.3-4 2.3-.4.4-1 .4-1.4.2l-1-.6c-.6-.3-1.3-.1-1.6.4l-1.1 1.9c-.3.6-.1 1.3.4 1.6l1 .6c.5.3.7.8.6 1.3-.2.7-.3 1.5-.3 2.3s.1 1.6.3 2.3c.1.5-.1 1-.6 1.3l-1 .6c-.6.3-.8 1.1-.4 1.6l1.1 1.9c.3.6 1.1.8 1.6.4l1-.6c.5-.3 1-.2 1.4.2 1.1 1 2.5 1.8 4 2.3.5.2.8.6.8 1.1v1.2c0 .7.5 1.2 1.2 1.2h2.2c.7 0 1.2-.5 1.2-1.2v-1.2c0-.5.3-1 .8-1.1 1.5-.5 2.9-1.3 4-2.3.4-.4 1-.4 1.4-.2l1 .6c.6.3 1.3.1 1.6-.4l1.1-1.9c.3-.6.1-1.3-.4-1.6l-1-.6c-.5-.3-.7-.8-.6-1.3.2-.7.3-1.5.3-2.3zm-10.5 5.4c-3 0-5.4-2.4-5.4-5.4s2.4-5.4 5.4-5.4 5.4 2.4 5.4 5.4-2.4 5.4-5.4 5.4z" fill="#00638b"/><g stroke="#1d325f" class="o r"><path d="M60.3 63c.4.2.8.5 1.3.7"/><path d="M64.5 64.8c4.7 1.5 11 2.2 14.5-.8 4.7-4 4.8-12.9 1.1-17.9-1.4-1.9-4.2-3.4-6-1.8-1.5 1.3-1 4 .5 5.4 2.8 2.7 7.6 2.3 10.8.1C96 43 104.8 35 116.5 32.3c14.4-3.2 26.3 4 21.9 14.3-2 4.6-4 9.3-4.6 14.3s1.5 10.9 6.3 12.4c3 1 6.3-.1 9.4-.8 3.1-.8 6.7-1.2 9.2.7 2.6 2 3.5 6 2 9-3.4 6.5-19.4 8.6-22.8 16" stroke-dasharray="3.0125,3.0125"/><path d="M137.5 99.7c-.1.5-.2 1-.2 1.5"/></g><path d="M143.5 82.5h-19.4c-2.8 0-5.1-2.3-5.1-5.1V47.6c0-2.8 2.3-5.1 5.1-5.1h19.4c2.8 0 5.1 2.3 5.1 5.1v29.8c0 2.8-2.3 5.1-5.1 5.1z" fill="#fff"/><path d="M121.6,42.5H146c1.5,0,2.6,1.2,2.6,2.6v34.7c0,1.5-1.2,2.6-2.6,2.6" class="o p q r t"/><g class="v"><use xlink:href="#C"/><use xlink:href="#C" y="5.5"/><use xlink:href="#C" y="11"/><use xlink:href="#C" y="16.5"/><use xlink:href="#C" y="21.9"/></g><text transform="matrix(.9976 0 0 1 127.7305 48.4282)" font-family="OpenSans-Bold" font-size="3.854" class="w">to do</text><g class="o p q r"><use xlink:href="#D"/><path d="M144.6 60.8h-.8c-.5 0-1-.4-1-1V59c0-.5.4-1 1-1h.8c.5 0 1 .4 1 1v.8c0 .6-.5 1-1 1zm0 5.5h-.8c-.5 0-1-.4-1-1v-.8c0-.5.4-1 1-1h.8c.5 0 1 .4 1 1v.8a1.08 1.08 0 0 1-1 1zm0 5.5h-.8c-.5 0-1-.4-1-1V70c0-.5.4-1 1-1h.8c.5 0 1 .4 1 1v.8a1.08 1.08 0 0 1-1 1z"/><use xlink:href="#D" y="21.9"/></g><linearGradient id="U" gradientUnits="userSpaceOnUse" x1="143.337" y1="53.929" x2="145.087" y2="53.929"><stop offset="0" stop-color="#13469f"/><stop offset="1" stop-color="#0e55cb"/></linearGradient><path d="M143.3 54.8l.1-1.7h1.7v1.7z" fill="url(#U)"/><linearGradient id="V" gradientUnits="userSpaceOnUse" x1="143.337" y1="59.408" x2="145.087" y2="59.408"><stop offset="0" stop-color="#13469f"/><stop offset="1" stop-color="#0e55cb"/></linearGradient><path d="M143.3 60.3l.1-1.8 1.7.1v1.7z" fill="url(#V)"/><linearGradient id="W" gradientUnits="userSpaceOnUse" x1="143.337" y1="64.888" x2="145.087" y2="64.888"><stop offset="0" stop-color="#13469f"/><stop offset="1" stop-color="#0e55cb"/></linearGradient><path d="M143.3 65.8l.1-1.8h1.7v1.8z" fill="url(#W)"/><path d="M143.3 149.1H112c-7.5 0-13.6-6.1-13.6-13.6V116c0-7.5 6.1-13.6 13.6-13.6h31.3c7.5 0 13.6 6.1 13.6 13.6v19.5c.1 7.5-6 13.6-13.6 13.6z" fill="#fff"/><path d="M157,109.4v32.7c0,3.9-3.1,7-7,7h-44.6c-3.9,0-7-3.1-7-7" class="o p q r"/><linearGradient id="X" gradientUnits="userSpaceOnUse" x1="98.354" y1="105.874" x2="156.983" y2="105.874"><stop offset="0" stop-color="#13469f"/><stop offset="1" stop-color="#0e55cb"/></linearGradient><path d="M98.4,109.4c0-3.9,3.1-7,7-7H150c3.9,0,7,3.1,7,7H98.4z" fill="url(#X)"/><g class="v"><use xlink:href="#E"/><use xlink:href="#F"/><use xlink:href="#E" x="17.3"/><use xlink:href="#G"/><use xlink:href="#H"/><use xlink:href="#E" y="7.2"/></g><linearGradient id="Y" gradientUnits="userSpaceOnUse" x1="115.355" y1="117.141" x2="122.672" y2="117.141"><stop offset="0" stop-color="#13469f"/><stop offset="1" stop-color="#0e55cb"/></linearGradient><use xlink:href="#F" y="7.2" fill="url(#Y)"/><g class="v"><use xlink:href="#E" x="17.3" y="7.2"/><use xlink:href="#G" y="7.2"/><use xlink:href="#H" y="7.2"/><use xlink:href="#I"/><use xlink:href="#J"/><use xlink:href="#I" x="17.3"/></g><linearGradient id="Z" gradientUnits="userSpaceOnUse" x1="132.665" y1="131.521" x2="139.983" y2="131.521"><stop offset="0" stop-color="#13469f"/><stop offset="1" stop-color="#0e55cb"/></linearGradient><use xlink:href="#K" fill="url(#Z)"/><g class="v"><use xlink:href="#L"/><use xlink:href="#I" y="7.2"/><use xlink:href="#J" y="7.2"/><use xlink:href="#I" x="17.3" y="7.2"/><use xlink:href="#K" y="7.2"/><use xlink:href="#L" y="7.2"/><path d="M142.6 106.9h0c-1 0-1.7-.8-1.7-1.7v-5.5c0-1 .8-1.7 1.7-1.7h0c1 0 1.7.8 1.7 1.7v5.5c.1.9-.7 1.7-1.7 1.7z"/></g><path d="M144.4 99.6v5.5c0 1-.8 1.7-1.7 1.7h0c-1 0-1.7-.8-1.7-1.7" class="o p q r t"/><g class="w"><path d="M129.2 119.5h0l-3.1-3.1c-.4-.4-.4-1.2 0-1.6h0l3.1 3.1c.4.4.4 1.2 0 1.6z"/><use xlink:href="#M"/><path d="M111.9 133.9h0l-3.1-3.1c-.4-.4-.4-1.2 0-1.6h0l3.1 3.1c.4.4.4 1.1 0 1.6z"/><use xlink:href="#M" x="-17.3" y="14.4"/><path d="M146.5 141h0l-3.1-3.1c-.4-.4-.4-1.2 0-1.6h0l3.1 3.1c.4.5.4 1.2 0 1.6z"/><path d="M142.7 140.2h0l3.1-3.1c.4-.4 1.1-.4 1.6 0h0l-3.1 3.1c-.5.5-1.2.5-1.6 0z"/></g><linearGradient id="a" gradientUnits="userSpaceOnUse" x1="102.211" y1="114.831" x2="102.211" y2="49.115"><stop offset="0" stop-color="#fefefe"/><stop offset="1" stop-color="#c6d9fa"/></linearGradient><ellipse cx="102.2" cy="82" rx="32.8" ry="32.9" fill="url(#a)"/><ellipse cx="102.2" cy="82" rx="25.9" ry="26" fill="#fff"/><path d="M102.7 61.9h-.9c-.5 0-1-.4-1-1v-2.2c0-.5.4-1 1-1h.9c.5 0 1 .4 1 1v2.2c-.1.5-.5 1-1 1zM93 64.1l-1.6.9c-.2.1-.5.1-.7-.2l-1.6-2.7c-.1-.2-.1-.5.2-.7l1.6-.9c.2-.1.5-.1.7.2l1.6 2.7c.1.2 0 .5-.2.7zm-7.7 7l-.9 1.6c-.1.2-.4.3-.7.2L81 71.4c-.2-.1-.3-.4-.2-.7l.9-1.6c.1-.2.4-.3.7-.2l2.7 1.6c.3.1.3.4.2.6zm-3.2 10.4v.9c0 .5-.4 1-1 1H79c-.5 0-1-.4-1-1v-.9c0-.5.4-1 1-1h2.2c.5 0 .9.5.9 1zm2.3 9.7l.9 1.6c.1.2.1.5-.2.7l-2.7 1.6c-.2.1-.5.1-.7-.2l-.9-1.6c-.1-.2-.1-.5.2-.7l2.7-1.6c.2-.1.5 0 .7.2zm7 7.7l1.6.9c.2.1.3.4.2.7l-1.6 2.7c-.1.2-.4.3-.7.2l-1.6-.9c-.2-.1-.3-.4-.2-.7l1.6-2.7c.1-.2.4-.3.7-.2zm10.4 3.2h.9c.5 0 1 .4 1 1v2.2c0 .5-.4 1-1 1h-.9c-.5 0-1-.4-1-1v-2.2a.94.94 0 0 1 1-1zm9.6-2.2l1.6-.9c.2-.1.5-.1.7.2l1.6 2.7c.1.2.1.5-.2.7l-1.6.9c-.2.1-.5.1-.7-.2l-1.6-2.7c-.1-.3 0-.6.2-.7zm7.7-7.1l.9-1.6c.1-.2.4-.3.7-.2l2.7 1.6c.2.1.3.4.2.7l-.9 1.6c-.1.2-.4.3-.7.2l-2.7-1.6c-.2-.1-.3-.4-.2-.7zm3.2-10.4v-.9c0-.5.4-1 1-1h2.2c.5 0 1 .4 1 1v.9c0 .5-.4 1-1 1h-2.2a.94.94 0 0 1-1-1zm-2.2-9.7l-.9-1.6c-.1-.2-.1-.5.2-.7l2.7-1.6c.2-.1.5-.1.7.2l.9 1.6c.1.2.1.5-.2.7l-2.7 1.6c-.3.1-.6.1-.7-.2zm-7-7.7l-1.6-.9c-.2-.1-.3-.4-.2-.7l1.6-2.7c.1-.2.4-.3.7-.2l1.6.9c.2.1.3.4.2.7l-1.6 2.7c-.2.3-.5.4-.7.2z" class="v"/><g class="o p q r"><path d="M102.2,56c14.3,0,25.9,11.6,25.9,26c0,14.3-11.6,26-25.9,26"/><path d="M102.2,49.1c18.1,0,32.8,14.7,32.8,32.9s-14.7,32.9-32.8,32.9"/></g><g class="w"><path d="M102.5 61.3c.9 4.1 2.9 17.3 0 24.1-.1.3-.6.3-.7 0-2.9-6.8-.8-20 0-24.1.2-.4.7-.4.7 0z"/><path d="M86.3 81.7c3.1-.7 14.3-2.3 19.5 0 .2.1.2.4 0 .6-5.2 2.3-16.4.6-19.5 0-.3-.1-.3-.5 0-.6z"/></g><g class="o p"><path d="M55.5 81.5l2.1-6h6.3l-1.5 5.1z" class="s x y"/><path d="M62.7 78.1l-.3 2.5.7-2.4z" class="q u"/></g><g class="s x y p"><circle cx="59.8" cy="72.2" r="4.8"/><path d="M64.1 70c1.1 2.3 1.3 5.9.1 7.5s-2.7-.1-3-1c0 0-1-.9-.9-1.7.2-.9 1.3-.7 1.5.2" class="o t"/></g><path d="M60.9 76.2c.5.5 1 .1.9-.5" class="o p q r s t"/><linearGradient id="b" gradientUnits="userSpaceOnUse" x1="64.842" y1="56.501" x2="56.381" y2="79.474"><stop offset="0" stop-color="#1d325f"/><stop offset="1" stop-color="#00030e"/></linearGradient><g class="o p q s"><path d="M61.3 74.3c.5.3.7 1 1.3.9.5-.1.6-.7.5-1.1s-.2-1 0-1.2c.2-.3.9-.8.5-1.4-.5-.7.5-1.3.6-2.1.3-1.4-1.6-3.8-4.9-3.2-4.1.8-3.9 3.7-3.9 3.7s-.8.3-1.2 1.6c-.4 1.1 0 2.4 1.4 3.8 1.4 1.3 1.1 1.7.8 2.1-.3.3-.1.7.9.8s3.4 0 3.5-2c0 0-.4-.5-.5-1-.1-.6.5-1.2 1-.9z" fill="url(#b)"/><path d="M64.6 71.2c.7 2.2.6 5-.3 6.3-.6.8-1.2.8-1.8.4" class="r t"/></g><linearGradient id="c" gradientUnits="userSpaceOnUse" x1="55.675" y1="84.134" x2="74.463" y2="65.346"><stop offset="0" stop-color="#13469f"/><stop offset="1" stop-color="#0e55cb"/></linearGradient><path d="M55.4 80c.1-.1 1.3-.6 4.1-.6 1.1 0 2.3.1 3.6.3h.1l.5 1-9 1.1.7-1.8z" fill="url(#c)"/><g class="o p s"><path d="M69.9 77.5c-.4-.3-.9-.5-1.5-.5h-.7l-1.5-.4c-.2-.1-.5 0-.7.1l-1.6 1.5c-.1.1 0 .3.1.3.3.1.7 0 1-.2l.1-.1.6.8c.4.5.7 1 .9 1.6.8 2.5 2.4 2.2 3.3 2.8l2-4.3-2-1.6zm-3.8.4l.6.2.1.4-.7-.6z" class="x y"/><path d="M70 81.1c-.2.3-1.5.1-2.8.4v.2c.9 1.3 2.1 1.2 2.8 1.8l2-4.3c-1 .6-1.7 1.6-2 1.9z" class="q u"/></g><linearGradient id="d" gradientUnits="userSpaceOnUse" x1="38.586" y1="111.511" x2="136.159" y2="13.938"><stop offset="0" stop-color="#13469f"/><stop offset="1" stop-color="#0e55cb"/></linearGradient><path d="M53.3 112.8C47.9 110.2 43 102 42.7 99.4c-.3-2.4 4.5-15.8 10.7-17.5h.2l-1.2 13.9c-2.5 2.5-2.8 4-2.8 4-.2 2.1 5.5 8 5.6 8.1l.1.1-1.7 4.9-.3-.1z" fill="url(#d)"/><path d="M53.4 106.8c0 .9 0 3.3-.6 5.6.2.1.3.2.5.3L55 108s-.7-.7-1.6-1.8v.6zm-1.2-11l1-8.5c-3.5.7-4.3 3.3-3.6 5.5l1.4 4.3 1.2-1.3z" class="o p q s u"/><linearGradient id="e" gradientUnits="userSpaceOnUse" x1="46.167" y1="118.976" x2="142.89" y2="22.253"><stop offset="0" stop-color="#13469f"/><stop offset="1" stop-color="#0e55cb"/></linearGradient><path d="M53.4 120.5h0c-1.2-2.8-.8-4.9-.3-7.4.5-2.8 1.2-6.1-.5-11.4-1.7-5.6-2.8-10.2-3.4-13-.6-3 1.2-6 4.1-6.8 2.3-.7 5.8-1.4 9.4-1.4 1.9 0 3.8.2 5.4.7 2.1.6 3.7 2.3 4.2 4.4.1.5.3 1.2.4 1.9 1.3 5.7 3.7 16.2 2.8 32.9v.1H53.4z" fill="url(#e)"/><g class="o p q r t"><path d="M53.5 120.4c-2.5-5.9 2.3-8.8-.8-18.6-1.7-5.4-2.8-9.9-3.4-13" class="s"/><path d="M70.2 93.9s3.5 13.3.9 26.5"/></g><path d="M67.4 92.5l7.6 8s-.4-4.6-1.4-8.6l-6.2.6z" class="o p q u"/><path d="M59.5 120.4s-1.5-3.3-.3-7.1c2.1-6.7-8.4-29.9-2.9-32" class="o p q r t"/><linearGradient id="f" gradientUnits="userSpaceOnUse" x1="43.277" y1="119.222" x2="144.51" y2="17.989"><stop offset="0" stop-color="#13469f"/><stop offset="1" stop-color="#0e55cb"/></linearGradient><path d="M69.9 83.5h0c-.1-2.9 2-4.4 2.1-4.4h.1l.1.1c.4.3 10.7 8.1 9.2 13.5l-.1.2-11.4-9.4z" fill="url(#f)"/><path d="M70.1 83.4l3.6 2.9 3.5-.1c-2.2-2.2-5.4-4.4-6.6-5.3-.3.7-.6 1.5-.5 2.5z" class="o p q u"/><linearGradient id="g" gradientUnits="userSpaceOnUse" x1="43.546" y1="117.241" x2="141.526" y2="19.261"><stop offset="0" stop-color="#13469f"/><stop offset="1" stop-color="#0e55cb"/></linearGradient><path d="M76 95c-3.1 0-6.7-1-8.7-2.4-2.6-1.8-3.5-6.6-2.6-9.5.5-1.4 1.3-2.2 2.4-2.2h.3c3.6.4 10.6 4.9 13 8.5.8 1.2 1.1 2.2.9 3.1C80.9 94.1 79 95 76 95h0z" fill="url(#g)"/><g class="o p q r t"><path d="M64.7 87.6c.4 2 1.3 3.9 2.7 4.9 3.8 2.7 12.8 3.7 13.8 0m-2.5-4.9c-3.2-3.1-8.4-6.2-11.3-6.5m13.8 11.4c1.5-5.4-9.2-13.3-9.2-13.3s-1.4.9-1.8 2.7"/><path d="M53.4 82c3.1-.9 7.3-1.7 11.4-1.4" class="s"/></g><linearGradient id="h" gradientUnits="userSpaceOnUse" x1="48.94" y1="137.61" x2="156.291" y2="177.129"><stop offset="0" stop-color="#13469f"/><stop offset="1" stop-color="#0e55cb"/></linearGradient><path d="M54 161.9c-.7 0-1.3-.1-1.8-.4h0v-.1c-1.4-12.9-.1-18.2.8-21.3.2-.7.3-1.3.4-1.8.6-3.3.9-16.2.9-16.3-.3-.5-.6-1-.8-1.6l-.1-.2h10.1v4.9l-5.6 36h-.1c-1.5.5-2.8.8-3.8.8z" fill="url(#h)"/><path d="M61 121.6l-.3 20.3 2.6-16.8v-3.5z" class="o p q u"/><linearGradient id="i" gradientUnits="userSpaceOnUse" x1="49.986" y1="134.338" x2="156.972" y2="173.723"><stop offset="0" stop-color="#13469f"/><stop offset="1" stop-color="#0e55cb"/></linearGradient><path d="M65.4 162.6c-1.3 0-2.3-.4-2.9-1.2 0-5.8.5-16.2 2.7-21.7 1.7-4.2-2.4-15.7-2.7-16.6-.3-.1-1.9-.9-3.2-2.8l-.1-.2h14.7v.1c-.7 12.4-2.4 26.2-5.1 41.1-.8.9-2.1 1.3-3.4 1.3h0z" fill="url(#i)"/><path d="M73.9 120.4H53.5c.1.2.2.5.3.7h20c0-.3 0-.5.1-.7z" class="o p q u"/><linearGradient id="j" gradientUnits="userSpaceOnUse" x1="94.059" y1="111.038" x2="66.31" y2="166.536"><stop offset="0" stop-color="#1d325f"/><stop offset="1" stop-color="#00030e"/></linearGradient><path d="M72.9 164c-.2-.4-.6-.6-.9-.9l-3.2-1.8c-1.5 1.3-4.9 1.6-6.1 0v2.5c0 .7.6 1.3 1.3 1.3h9c.3 0 .5-.4.3-.6l-.4-.5z" fill="url(#j)" class="o p q s"/><linearGradient id="k" gradientUnits="userSpaceOnUse" x1="84.254" y1="106.117" x2="56.5" y2="161.623"><stop offset="0" stop-color="#1d325f"/><stop offset="1" stop-color="#00030e"/></linearGradient><g class="o p q"><path d="M52.3 161.4l.4 3.3a.65.65 0 0 0 .6.6h5.3c.4 0 .7-.4.6-.8-.4-1.4-1.5-3.4-1.5-3.4-1.7.5-4.1 1.1-5.4.3z" fill="url(#k)" class="s"/><g class="r"><path d="M60.4,121.6c1,1.1,2.3,1.5,2.3,1.5s4.5,12.3,2.7,16.7" class="t"/><path d="M71.1 120.4c-.3 13.8-1.5 22.9-4.7 42.1"/><path d="M70.9 125.9l1.2-5.5M62 127.3l-4.8 33.9"/></g></g><g fill="#fc6b10"><use xlink:href="#N"/><use xlink:href="#N" x="53.9" y="22.3"/><use xlink:href="#N" x="-57.8" y="75.8"/><path d="M142.6 81.1l.4.9a3.19 3.19 0 0 0 1.8 1.8l.9.3-.9.3a3.19 3.19 0 0 0-1.8 1.8l-.3.9-.3-.9a3.19 3.19 0 0 0-1.8-1.8l-.9-.3.9-.3a3.19 3.19 0 0 0 1.8-1.8l.2-.9z"/><use xlink:href="#O"/><path d="M80.1 112.7l.1.4c.1.4.4.7.8.8l.4.1-.4.1c-.4.1-.7.4-.8.8l-.1.4-.1-.3c-.1-.4-.4-.7-.8-.8l-.4-.1.4-.1c.4-.1.7-.4.8-.8l.1-.5z"/><use xlink:href="#O" x="12.2" y="5.4"/><use xlink:href="#O" x="-99.5" y="16.4"/><use xlink:href="#O" x="-24.9" y="-45.4"/><use xlink:href="#N" x="-39.5" y="-4.1"/><path d="M48.2 30.2l.3.9a3.19 3.19 0 0 0 1.8 1.8l.9.3-.9.3a3.19 3.19 0 0 0-1.8 1.8l-.3.9-.3-.9a3.19 3.19 0 0 0-1.8-1.8l-.9-.3.9-.3a3.19 3.19 0 0 0 1.8-1.8l.3-.9z"/><use xlink:href="#O" x="-68" y="-59.4"/><path d="M78 36.1l.1.4c.1.4.4.7.8.8l.4.1-.3.2c-.4.1-.7.4-.8.8l-.2.4-.1-.4c-.1-.4-.4-.7-.8-.8l-.4-.1.4-.1c.4-.1.7-.4.8-.8l.1-.5z"/></g></svg>